<svg aria-hidden="true" style="position: absolute; width: 0; height: 0; overflow: hidden;" version="1.1" xmlns="http://www.w3.org/2000/svg" xmlns:xlink="http://www.w3.org/1999/xlink">
<defs>
<symbol id="icon-kocuk" viewBox="0 0 30 32">
<path d="M23.852 31.619h-17.471c-0.972-0-1.931-0.232-2.804-0.678s-1.637-1.094-2.234-1.896c-0.597-0.801-1.010-1.734-1.209-2.727s-0.178-2.021 0.062-3.005l3.541-15.092c0.064-0.27 0.214-0.509 0.426-0.677s0.473-0.255 0.739-0.247h19.509c0.257-0.012 0.511 0.065 0.721 0.219s0.367 0.376 0.444 0.633l4.403 14.788c0.301 1.004 0.37 2.069 0.202 3.107s-0.569 2.019-1.169 2.865c-0.591 0.849-1.367 1.538-2.265 2.010s-1.89 0.712-2.895 0.702zM5.776 9.729l-3.366 14.168c-0.15 0.625-0.162 1.278-0.035 1.908s0.389 1.223 0.767 1.732c0.378 0.509 0.862 0.922 1.415 1.208s1.161 0.437 1.778 0.441h17.471c0.634 0.001 1.259-0.155 1.824-0.455s1.054-0.736 1.426-1.272c0.383-0.539 0.638-1.164 0.746-1.826s0.063-1.34-0.128-1.98l-4.1-13.924h-17.797z"></path>
<path d="M19.752 17.025c-0.309 0-0.605-0.128-0.824-0.356s-0.341-0.537-0.341-0.86v-9.729c0-0.968-0.368-1.896-1.023-2.58s-1.544-1.069-2.471-1.069-1.815 0.384-2.471 1.069c-0.655 0.684-1.023 1.612-1.023 2.58v9.729c0 0.323-0.123 0.632-0.341 0.86s-0.515 0.356-0.824 0.356c-0.309 0-0.605-0.128-0.824-0.356s-0.341-0.537-0.341-0.86v-9.729c0-1.613 0.614-3.159 1.706-4.3s2.573-1.781 4.118-1.781c1.544 0 3.026 0.641 4.118 1.781s1.706 2.687 1.706 4.3v9.729c0 0.323-0.123 0.632-0.341 0.86s-0.515 0.356-0.824 0.356z"></path>
</symbol>
<symbol id="icon-insta" viewBox="0 0 32 32">
<path d="M25.787 7.335c0 1.031-0.835 1.866-1.866 1.866s-1.866-0.835-1.866-1.866 0.835-1.866 1.866-1.866c1.030 0 1.866 0.835 1.866 1.866z"></path>
<path d="M31.081 9.232c-0.073-1.653-0.34-2.789-0.723-3.774-0.395-1.045-1.002-1.981-1.799-2.759-0.778-0.79-1.72-1.404-2.753-1.793-0.991-0.383-2.121-0.65-3.774-0.723-1.665-0.079-2.194-0.097-6.418-0.097s-4.752 0.018-6.412 0.091c-1.653 0.073-2.789 0.34-3.774 0.723-1.045 0.395-1.981 1.002-2.759 1.799-0.79 0.778-1.404 1.72-1.793 2.753-0.383 0.991-0.65 2.121-0.723 3.774-0.079 1.665-0.097 2.194-0.097 6.418s0.018 4.752 0.091 6.412c0.073 1.653 0.34 2.789 0.723 3.774 0.395 1.045 1.009 1.981 1.799 2.759 0.778 0.79 1.72 1.404 2.753 1.793 0.991 0.383 2.121 0.651 3.774 0.723 1.659 0.073 2.188 0.091 6.412 0.091s4.752-0.017 6.412-0.091c1.653-0.073 2.789-0.34 3.774-0.723 2.091-0.808 3.744-2.462 4.552-4.552 0.383-0.991 0.65-2.121 0.723-3.774 0.073-1.66 0.091-2.189 0.091-6.412s-0.007-4.752-0.080-6.412zM28.279 21.934c-0.067 1.52-0.322 2.34-0.535 2.887-0.523 1.355-1.598 2.432-2.954 2.954-0.547 0.213-1.374 0.468-2.887 0.535-1.641 0.073-2.133 0.091-6.284 0.091s-4.649-0.017-6.284-0.091c-1.52-0.067-2.34-0.322-2.886-0.535-0.675-0.249-1.288-0.645-1.787-1.161-0.516-0.505-0.912-1.112-1.161-1.787-0.213-0.547-0.468-1.374-0.535-2.887-0.073-1.641-0.091-2.133-0.091-6.284s0.018-4.649 0.091-6.284c0.067-1.52 0.322-2.34 0.535-2.886 0.249-0.675 0.645-1.288 1.167-1.787 0.505-0.516 1.112-0.912 1.787-1.161 0.547-0.213 1.374-0.468 2.887-0.535 1.641-0.073 2.133-0.091 6.284-0.091 4.157 0 4.649 0.018 6.284 0.091 1.52 0.067 2.34 0.322 2.887 0.535 0.675 0.249 1.288 0.644 1.787 1.161 0.516 0.505 0.912 1.112 1.161 1.787 0.213 0.547 0.468 1.374 0.535 2.886 0.073 1.641 0.091 2.133 0.091 6.284s-0.018 4.639-0.091 6.279z"></path>
<path d="M15.613 7.651c-4.412 0-7.992 3.58-7.992 7.992s3.58 7.992 7.992 7.992c4.412 0 7.992-3.58 7.992-7.992s-3.58-7.992-7.992-7.992zM15.613 20.828c-2.862 0-5.184-2.322-5.184-5.184s2.322-5.184 5.184-5.184c2.862 0 5.184 2.322 5.184 5.184s-2.322 5.184-5.184 5.184z"></path>
</symbol>
<symbol id="icon-feysbyk" viewBox="0 0 31 32">
<path d="M15.556 0.085c-8.583 0-15.556 6.984-15.556 15.58 0 7.804 5.747 14.262 13.231 15.388l0.812 0.123v-12.277h-3.675v-2.493h3.675v-3.31c0-2.038 0.488-3.381 1.297-4.223s2.003-1.267 3.665-1.267c1.329 0 1.846 0.081 2.338 0.141v2.040h-1.73c-0.982 0-1.787 0.549-2.205 1.279s-0.548 1.603-0.548 2.493v2.845h4.329l-0.385 2.493h-3.944v12.298l0.802-0.109c7.591-1.031 13.45-7.541 13.45-15.421 0-8.596-6.973-15.58-15.556-15.58zM15.556 1.501c7.819 0 14.141 6.333 14.141 14.164 0 6.891-4.924 12.558-11.424 13.834v-9.185h3.742l0.822-5.325h-4.564v-1.429c0-0.735 0.134-1.393 0.36-1.788s0.444-0.567 0.979-0.567h3.145v-4.739l-0.613-0.083c-0.424-0.058-1.392-0.192-3.139-0.192-1.911 0-3.552 0.521-4.684 1.701s-1.692 2.937-1.692 5.205v1.894h-3.675v5.325h3.675v9.139c-6.395-1.357-11.215-6.973-11.215-13.789 0-7.831 6.323-14.164 14.141-14.164z"></path>
</symbol>
</defs>
</svg>
